# xmcd
# 
# Track frame offsets:
#	150
#	13592
#	28131
#	43456
#	62470
#	75355
#	84254
#	96998
#	113010
#	128288
#	143566
#	157653
#
# Disc length: 2301 seconds
#
# Revision: 1
# Processed by: cddbd v1.4PL0 Copyright (c) Steve Scherf et al.
# Submitted via: Audio-CD-Archiv 2.10.446
#
DISCID=8108fb0c
DTITLE=Neil Diamond - Diamonds CD1
DYEAR=1900
DGENRE=blues
TTITLE0=Cracklin' Rosie
TTITLE1=Free Life
TTITLE2=Goldwater Morning
TTITLE3=He Ain't Heavy...He's My Brother
TTITLE4=A Modern Day Version Of Love
TTITLE5=Honay-Drippin' Times
TTITLE6=Sunday Sun
TTITLE7=Practically Newborn
TTITLE8=Long Gone
TTITLE9=Glory Road
TTITLE10=Deep In The Morning
TTITLE11=If I Never Knew Your Name
EXTD=
EXTT0=
EXTT1=
EXTT2=
EXTT3=
EXTT4=
EXTT5=
EXTT6=
EXTT7=
EXTT8=
EXTT9=
EXTT10=
EXTT11=
PLAYORDER=
